<svg width="47" height="46" viewBox="0 0 47 46" fill="none" xmlns="http://www.w3.org/2000/svg">
<circle cx="23.5" cy="23" r="23" fill="#E8E7F7"/>
<g clip-path="url(#clip0_1306_577)">
<path fill-rule="evenodd" clip-rule="evenodd" d="M30.1667 23.6667C30.1487 20.002 27.1687 17 23.5 17C19.8313 17 16.8513 20.002 16.8333 23.6667H18.5C19.052 23.6667 19.5 24.1147 19.5 24.6667V29.3333C19.5 29.8853 19.052 30.3333 18.5 30.3333H16.5C15.948 30.3333 15.5 29.8853 15.5 29.3333V23.6667C15.518 19.266 19.096 15.6667 23.5 15.6667C27.904 15.6667 31.482 19.266 31.5 23.6667V29.3333C31.5 29.8853 31.052 30.3333 30.5 30.3333H28.5C27.948 30.3333 27.5 29.8853 27.5 29.3333V24.6667C27.5 24.1147 27.948 23.6667 28.5 23.6667H30.1667Z" fill="#7367F0"/>
</g>
<defs>
<clipPath id="clip0_1306_577">
<rect width="16" height="16" fill="white" transform="translate(15.5 15)"/>
</clipPath>
</defs>
</svg>
