<svg width="20" height="20" viewBox="0 0 20 20" fill="none" xmlns="http://www.w3.org/2000/svg">
<path d="M10.0019 0.00500488C15.5199 0.00500488 19.9999 4.485 19.9999 10.002C19.9999 15.52 15.5199 20 10.0019 20C4.48488 20 0.00488281 15.52 0.00488281 10.002C0.00488281 4.485 4.48488 0.00500488 10.0019 0.00500488ZM10.0019 8.005C9.58788 8.005 9.25188 8.34101 9.25188 8.755V14.255C9.25188 14.669 9.58788 15.005 10.0019 15.005C10.4159 15.005 10.7519 14.669 10.7519 14.255V8.755C10.7519 8.34101 10.4159 8.005 10.0019 8.005ZM9.99988 5.005C9.44788 5.005 8.99988 5.453 8.99988 6.005C8.99988 6.557 9.44788 7.005 9.99988 7.005C10.5519 7.005 10.9999 6.557 10.9999 6.005C10.9999 5.453 10.5519 5.005 9.99988 5.005Z" fill="#7367F0"/>
</svg>
