<svg width="95" height="124" viewBox="0 0 95 124" fill="none" xmlns="http://www.w3.org/2000/svg">
<path d="M72.6121 121.018C90.3347 109.192 94.6419 86.8384 94.2849 66.642C94.2165 63.2696 94.6495 59.7301 93.0694 56.7679C91.4894 53.8057 87.7519 51.7093 84.6601 53.0841C82.1153 54.2234 80.9607 57.1173 79.5097 59.5023C77.553 62.6888 74.7388 65.2604 71.3891 66.9231C69.2013 68.0016 66.5046 68.6396 64.3776 67.4395C61.4605 65.7989 61.1719 61.7809 61.2478 58.4313L61.658 39.7161C61.7264 36.3665 61.7948 32.9486 60.7844 29.7509C59.7741 26.5532 57.4952 23.5758 54.2819 22.6339C51.0686 21.6921 47.05 23.4694 46.3132 26.7355C46.0093 28.0951 46.2676 29.5154 46.1536 30.9054C46.0397 32.2953 45.394 33.822 44.0114 34.1866C42.6289 34.5512 41.3147 33.5866 40.312 32.5992C36.8632 29.1584 34.5538 24.7758 32.404 20.4464C30.2542 16.117 28.1576 11.6129 25.0431 7.88353C21.9285 4.15416 17.5681 1.16154 12.714 0.812152C7.85986 0.462761 2.64109 3.35663 1.3193 8.04303C-0.00248528 12.7294 2.73224 17.5753 5.71006 21.4414C10.1442 27.1685 15.3814 32.226 21.26 36.4577C22.3235 37.2172 23.463 38.0451 23.858 39.2908C24.5569 41.5694 22.3843 43.7189 20.1357 44.4253C17.5909 45.1848 14.8182 44.919 12.205 45.1848C9.59185 45.4507 6.66721 46.5596 5.6265 48.9826C4.19076 52.3853 7.03184 56.016 9.85013 58.4085C15.4962 63.2009 21.9188 66.9949 28.8413 69.627C31.3253 70.5689 33.9385 71.3968 35.9212 73.1589C37.9039 74.9211 39.0813 77.9441 37.8279 80.2835C36.5745 82.6229 33.4372 83.3217 30.8316 82.8204C28.226 82.3191 25.9091 80.8683 23.4326 79.9037C18.7912 78.096 12.7976 78.3238 9.72099 82.2583C7.71552 84.8407 7.48763 88.479 8.42959 91.6083C9.37155 94.7376 11.3466 97.4492 13.4433 99.9633C20.7814 108.728 30.2466 115.838 41.0032 119.712C51.7598 123.585 61.7644 124.725 72.5742 121.003" fill="#C2C0EF"/>
<path d="M71.252 121.405C68.4033 111.189 60.6169 87.1495 55.9451 75.8323L52.4735 67.4773C51.3264 64.7353 50.1946 62.0237 48.9108 59.4337C46.4439 54.4758 43.705 49.658 40.7066 45.0023C37.8655 40.521 35.0092 36.3739 32.3505 32.5078C29.6917 28.6417 27.0329 25.1098 24.5413 21.9729C20.6121 17.0022 16.2938 12.3518 11.6273 8.06558C9.97888 6.54649 8.66469 5.40717 7.76071 4.64762L6.68201 3.72098C6.44652 3.53109 6.31738 3.43994 6.31738 3.43994C6.31738 3.43994 6.42373 3.55388 6.64403 3.75896L7.64676 4.65522C8.52036 5.41477 9.81935 6.59966 11.445 8.14153C16.0414 12.4783 20.3073 17.1524 24.2071 22.1248C26.6835 25.2693 29.2511 28.824 31.9479 32.6825C34.6446 36.541 37.4705 40.7033 40.304 45.177C43.2836 49.8344 46.0047 54.6521 48.455 59.6084C49.7236 62.1908 50.8555 64.9252 52.0025 67.6368C53.1496 70.3484 54.2815 73.1739 55.4741 75.9918C60.1156 87.2938 67.9247 111.311 70.7962 121.496" fill="#E0E0E0"/>
<path d="M48.752 59.3812C48.9092 58.9171 49.0211 58.4389 49.0862 57.9532C49.2685 57.0266 49.4964 55.6746 49.7547 54.0188C50.2788 50.692 50.8486 46.0739 51.4639 40.9774C52.0792 35.8808 52.7249 31.2856 53.3174 27.9739C53.6061 26.3181 53.8568 24.9813 54.0771 24.0623C54.1958 23.5887 54.2746 23.1059 54.3126 22.6191C54.1266 23.0704 53.9842 23.5384 53.8872 24.0167C53.6365 24.9282 53.3326 26.2953 52.9984 27.9132C52.2615 31.2096 51.5778 35.8201 50.9625 40.9394C50.3472 46.0587 49.8155 50.5628 49.4052 53.996C49.2001 55.591 49.0254 56.9202 48.8887 57.9456C48.8026 58.4194 48.7569 58.8997 48.752 59.3812Z" fill="#E0E0E0"/>
<path d="M5.25391 50.6839C5.39898 50.7302 5.54987 50.7558 5.7021 50.7599L6.9935 50.889C8.11777 51.0029 9.73582 51.1549 11.7261 51.4055C15.7142 51.8764 21.2065 52.7347 27.2229 53.9424C33.2393 55.1501 38.6176 56.5096 42.4918 57.5958C44.4289 58.1275 45.9862 58.5984 47.0497 58.9174L48.2955 59.282C48.4366 59.3367 48.5851 59.3699 48.7361 59.3807C48.6096 59.2973 48.4713 59.2333 48.3259 59.1909C47.9916 59.0617 47.5662 58.9098 47.1104 58.7351C46.0545 58.3553 44.5048 57.8237 42.5526 57.216C38.7011 56.0387 33.3077 54.6336 27.2837 53.4183C21.2597 52.203 15.7978 51.4359 11.7641 51.0485C9.76621 50.8434 8.13297 50.7447 7.00869 50.6991H5.7097C5.55899 50.6751 5.40587 50.67 5.25391 50.6839Z" fill="#E0E0E0"/>
<path d="M67.0137 107.498C67.1295 107.334 67.2288 107.158 67.3099 106.974L68.0696 105.455C68.7229 104.103 69.5889 102.128 70.7132 99.6752C72.8857 94.7761 75.6736 87.9098 78.6591 80.2991C81.6445 72.6885 84.3716 65.7766 86.4454 60.8396L88.9371 55.0062C89.2105 54.353 89.4384 53.8289 89.6132 53.4188C89.6993 53.2358 89.7679 53.045 89.8183 52.8491C89.6955 53.0091 89.5958 53.1855 89.522 53.3732L88.7624 54.8923C88.1091 56.2443 87.2051 58.2191 86.1264 60.6649C83.9538 65.5715 81.1583 72.4378 78.1805 80.0485C75.2027 87.6591 72.4603 94.5406 70.3713 99.4777L67.8797 105.311L67.2112 106.898C67.121 107.09 67.0547 107.291 67.0137 107.498Z" fill="#E0E0E0"/>
<path d="M9.33398 88.1973C9.51572 88.2922 9.7066 88.3686 9.90372 88.4251L11.5825 88.9948L17.7661 91.0683C22.9848 92.8153 30.1635 95.3142 38.0866 98.0942C46.0097 100.874 53.2188 103.32 58.4679 104.983C61.0887 105.811 63.2233 106.464 64.697 106.89L66.4062 107.368C66.6034 107.435 66.8071 107.481 67.014 107.505C66.8295 107.408 66.6362 107.329 66.4366 107.269L64.7578 106.7L58.5743 104.641C53.3555 102.894 46.1768 100.396 38.2537 97.6156C30.3306 94.8357 23.1292 92.3824 17.88 90.7266C15.2516 89.8987 13.1246 89.2454 11.6433 88.8201L9.9417 88.334C9.74409 88.2686 9.54054 88.2229 9.33398 88.1973Z" fill="#E0E0E0"/>
</svg>
