<svg width="216" height="200" viewBox="0 0 216 200" fill="none" xmlns="http://www.w3.org/2000/svg">
<g clip-path="url(#clip0_993_5063)">
<path d="M166.531 29.668H30.7901C22.8562 29.668 15.2472 32.8112 9.63707 38.4062C4.02694 44.0012 0.875195 51.5896 0.875195 59.5021V107.746H-28.4092L0.875195 136.951V169.748C0.875195 177.66 4.02694 185.249 9.63707 190.844C15.2472 196.439 22.8562 199.582 30.7901 199.582H166.531C174.465 199.582 182.074 196.439 187.684 190.844C193.294 185.249 196.446 177.66 196.446 169.748V59.5021C196.446 51.5896 193.294 44.0012 187.684 38.4062C182.074 32.8112 174.465 29.668 166.531 29.668Z" fill="#7367F0"/>
<path d="M30.0135 29.4346H165.102C181.679 29.4346 195.116 42.9187 195.116 59.5522V169.883C195.116 186.516 181.679 200 165.102 200H30.0135C13.4373 200 -0.000274658 186.516 -0.000274658 169.883V59.5522C-0.000274658 42.9187 13.4373 29.4346 30.0135 29.4346Z" fill="#7367F0"/>
<path d="M199.782 107.333L212.031 93.3577C215.342 90.0345 216.48 88.4351 215.814 87.8528C214.932 87.0764 215.311 87.3326 208.433 92.5114C208.433 92.5114 218.182 85.0344 214.801 84.9878C214.205 84.9878 212.549 85.9505 210.777 87.1152C213.191 85.0576 213.872 83.6678 213.4 83.0079C212.626 81.8588 206.653 86.0126 203.906 88.0081C206.15 86.331 210.429 83.0778 211.179 82.0529C212.216 80.6553 210.119 80.7718 208.417 81.3541C206.506 82.0063 195.944 87.418 192.818 88.8156C192.568 88.9656 192.288 89.0594 191.997 89.0904C191.707 89.1215 191.414 89.089 191.137 88.9953C190.861 88.9016 190.608 88.7488 190.396 88.5476C190.184 88.3463 190.018 88.1013 189.909 87.8295C188.756 82.969 185.267 79.809 183.936 79.3975C182.605 78.986 181.576 80.6941 182.527 81.9364C183.423 83.3819 184.115 84.9442 184.586 86.5794C185.017 87.8622 185.229 89.2089 185.212 90.5625C185.212 92.1154 185.104 93.4586 185.003 94.5844L173.807 109.996L192.532 120.866L199.782 107.333Z" fill="#B78876"/>
<path d="M204.162 94.6853C204.286 94.8561 206.483 93.3576 209.021 91.3311C211.559 89.3047 213.54 87.5189 213.393 87.3558C213.246 87.1928 211.071 88.6991 208.534 90.71C205.996 92.721 204.054 94.5067 204.162 94.6853Z" fill="#AA6550"/>
<path d="M201.794 92.2315C201.918 92.4101 204.324 90.9349 207.172 88.9472C210.019 86.9596 212.232 85.1971 212.108 85.0263C211.985 84.8555 209.578 86.3152 206.731 88.3028C203.883 90.2905 201.67 92.0529 201.794 92.2315Z" fill="#AA6550"/>
<path d="M200.061 89.623C200.184 89.8016 202.49 88.4506 205.206 86.6027C207.922 84.7548 210.027 83.1165 209.91 82.9302C209.794 82.7438 207.489 84.1026 204.765 85.9505C202.041 87.7984 199.945 89.4444 200.061 89.623Z" fill="#AA6550"/>
<path d="M183.959 96.6729L139.329 153.461L149.55 177.336C149.55 177.336 161.791 174.618 165.505 169.447C169.219 164.276 199.782 107.333 199.782 107.333L183.959 96.6729Z" fill="#B78876"/>
<path d="M70.6666 17.2285C67.4555 20.0237 67.4633 24.9462 67.8347 29.1933C68.2061 33.4403 68.4924 38.2775 65.5599 41.3677C63.138 43.9143 58.7508 45.0246 58.1937 48.4953C58.0618 49.3107 58.1848 50.1472 58.5459 50.8896C58.9069 51.6321 59.4882 52.2441 60.21 52.6416C60.9318 53.039 61.7585 53.2024 62.5765 53.1092C63.3946 53.016 64.1637 52.6709 64.7784 52.1212C63.8344 54.862 64.4843 58.286 66.852 59.9476C69.2197 61.6091 73.189 60.5842 73.9241 57.7813C73.8038 58.2493 73.7809 58.7371 73.8568 59.2143C73.9328 59.6915 74.1059 60.1479 74.3654 60.555C74.6249 60.9621 74.9652 61.3112 75.3651 61.5805C75.765 61.8498 76.2159 62.0334 76.6897 62.1201C77.1635 62.2067 77.65 62.1944 78.1189 62.084C78.5877 61.9736 79.0289 61.7675 79.4148 61.4784C79.8007 61.1893 80.1231 60.8235 80.3619 60.4038C80.6007 59.9841 80.7508 59.5196 80.8027 59.0392" fill="#263238"/>
<path d="M116.65 45.8943C117.082 46.9342 117.908 47.7593 118.946 48.1881C119.985 48.6169 121.15 48.6143 122.186 48.1808C123.223 47.7474 124.045 46.9185 124.472 45.8767C124.9 44.8349 124.897 43.6654 124.465 42.6255C123.73 41.0105 121.989 39.8459 121.819 38.0756C121.618 35.9404 123.792 34.4109 125.687 33.4792C127.583 32.5475 129.873 31.3362 130.082 29.1933C130.291 27.0503 128.442 25.5208 126.902 24.1387C125.363 22.7567 123.807 20.6138 124.79 18.7736C125.277 17.8264 126.291 17.2907 126.949 16.4443C128.396 14.5964 127.637 11.6538 125.788 10.2329C123.939 8.81206 121.385 8.5869 119.08 8.99841C116.774 9.40991 114.607 10.3727 112.364 11.0482C108.644 12.1335 104.74 12.4331 100.899 11.9279C97.0586 11.4228 93.3639 10.1239 90.0486 8.11328" fill="#263238"/>
<path d="M102.947 95.9668C98.9497 96.7763 94.7953 95.9762 91.3805 93.7393C87.9657 91.5023 85.5643 88.0078 84.6944 84.0098L73.7149 33.4954C73.0296 30.5786 72.9341 27.5534 73.4342 24.5988C73.9342 21.6443 75.0196 18.8204 76.6261 16.294C78.2326 13.7677 80.3276 11.5903 82.7873 9.89056C85.2469 8.19081 88.0213 7.00325 90.9463 6.3981L92.0914 6.22729C97.685 5.40216 103.383 6.72181 108.051 9.92335C112.718 13.1249 116.012 17.9733 117.277 23.5028C119.722 34.1632 122.283 45.9726 123.057 51.7725C124.659 63.7839 112.998 67.402 112.998 67.402L115.095 77.4956C115.511 79.5066 115.526 81.5803 115.141 83.5975C114.756 85.6146 113.977 87.5355 112.85 89.2498C111.722 90.964 110.268 92.4378 108.572 93.5865C106.875 94.7353 104.969 95.5363 102.963 95.9435L102.947 95.9668Z" fill="#B78876"/>
<path d="M115.127 31.4534C115.194 31.8992 115.087 32.354 114.827 32.7219C114.568 33.0899 114.175 33.3421 113.734 33.4255C113.52 33.4745 113.298 33.48 113.082 33.4418C112.866 33.4036 112.659 33.3225 112.475 33.2031C112.29 33.0838 112.131 32.9287 112.007 32.7469C111.884 32.5651 111.797 32.3602 111.753 32.1444C111.681 31.6992 111.785 31.2434 112.044 30.8747C112.303 30.506 112.696 30.2538 113.138 30.1723C113.353 30.1233 113.575 30.1177 113.791 30.1558C114.008 30.1939 114.215 30.2749 114.4 30.3942C114.585 30.5135 114.745 30.6686 114.87 30.8505C114.994 31.0323 115.082 31.2373 115.127 31.4534Z" fill="#263238"/>
<path d="M115.568 29.7453C115.39 30.0015 113.958 29.2251 112.117 29.5046C110.275 29.7841 109.076 30.8944 108.844 30.7003C108.728 30.6149 108.89 30.1801 109.409 29.6676C110.123 28.9985 111.025 28.5672 111.993 28.4331C112.947 28.2885 113.923 28.4516 114.779 28.899C115.405 29.2561 115.653 29.6288 115.568 29.7453Z" fill="#263238"/>
<path d="M97.1831 34.4031C97.2531 34.8492 97.1466 35.305 96.8864 35.6734C96.6263 36.0418 96.233 36.2937 95.7904 36.3753C95.5758 36.4241 95.3536 36.4293 95.137 36.3907C94.9204 36.352 94.7137 36.2702 94.5291 36.15C94.3444 36.0299 94.1857 35.8739 94.0621 35.6912C93.9385 35.5086 93.8527 35.3029 93.8096 35.0864C93.7398 34.6412 93.8464 34.1864 94.1068 33.8192C94.3671 33.4521 94.7604 33.2018 95.2023 33.122C95.4164 33.072 95.6383 33.0656 95.8549 33.1033C96.0715 33.1411 96.2783 33.2221 96.4631 33.3416C96.6479 33.4611 96.8069 33.6166 96.9305 33.799C97.0542 33.9814 97.1401 34.1868 97.1831 34.4031Z" fill="#263238"/>
<path d="M97.5694 32.7423C97.3914 32.9908 95.96 32.2221 94.1262 32.5016C92.2924 32.7811 91.0776 33.8914 90.8455 33.6973C90.7372 33.6119 90.8919 33.1771 91.4181 32.6647C92.132 31.9955 93.0347 31.5643 94.0024 31.4302C94.9567 31.2856 95.932 31.4487 96.7879 31.896C97.3837 32.2299 97.6622 32.6259 97.5694 32.7423Z" fill="#263238"/>
<path d="M106.228 45.4292C106.228 45.3205 107.319 44.9556 109.13 44.4509C109.594 44.3344 110.019 44.1714 110.05 43.8375C110.019 43.3484 109.841 42.8803 109.54 42.4943C108.926 41.4228 108.289 40.297 107.628 39.1168C104.959 34.2952 102.986 30.3121 103.148 30.2034C103.311 30.0947 105.663 33.9148 108.333 38.7441L110.19 42.1449C110.565 42.6728 110.745 43.315 110.7 43.9617C110.653 44.1333 110.568 44.292 110.451 44.4263C110.335 44.5607 110.19 44.6672 110.027 44.7382C109.779 44.8447 109.52 44.9203 109.253 44.9633C108.268 45.2441 107.252 45.4006 106.228 45.4292Z" fill="#263238"/>
<path d="M96.9976 25.4513C96.8893 25.9792 95.0168 26.0103 92.9045 26.5849C90.7921 27.1594 89.1363 28.0057 88.7804 27.602C88.6256 27.4079 88.8577 26.8877 89.4845 26.3053C90.3348 25.5723 91.3407 25.0437 92.4255 24.7598C93.5103 24.4759 94.6453 24.4442 95.7441 24.6671C96.6107 24.8689 97.0363 25.2416 96.9976 25.4513Z" fill="#263238"/>
<path d="M114.113 24.5119C113.85 24.9778 112.566 24.7293 111.018 24.9312C109.471 25.1331 108.248 25.63 107.923 25.234C107.761 25.0399 107.923 24.5896 108.403 24.1082C109.09 23.5224 109.935 23.155 110.83 23.0527C111.726 22.9504 112.632 23.1178 113.432 23.5336C113.989 23.883 114.229 24.2868 114.113 24.5119Z" fill="#263238"/>
<path d="M84.7646 18.4397L84.7105 18.5018C83.0248 20.2871 82.0932 22.6577 82.1107 25.117V25.3576C82.1107 28.8516 82.7374 32.3455 82.7297 35.8006C82.7219 39.2557 82.0565 42.936 79.8823 45.6535C78.9925 46.7793 77.2593 47.711 76.2457 46.7017C75.8886 46.2723 75.6605 45.7499 75.588 45.1954C73.7465 37.0351 70.4348 30.0473 69.1891 21.4134C69.0164 20.2576 69.1207 19.0772 69.4934 17.97C69.8662 16.8627 70.4966 15.8606 71.3324 15.0467C72.9418 13.4938 74.9458 11.8168 77.0891 12.4767C79.2324 13.1367 82.366 16.5141 84.1534 17.9117" fill="#263238"/>
<path d="M78.5358 38.3247C78.3191 38.2625 69.9704 37.0901 71.4328 45.2504C72.8952 53.4107 80.7178 50.2584 80.7178 50.0177C80.7178 49.777 78.5358 38.3247 78.5358 38.3247Z" fill="#B78876"/>
<path d="M77.6848 47.3776C77.6848 47.3776 77.561 47.5018 77.3443 47.6494C77.0323 47.8566 76.6523 47.9346 76.2843 47.8668C75.3713 47.7037 74.4041 46.4692 74.1023 45.0017C73.9466 44.3091 73.9466 43.5903 74.1023 42.8976C74.1343 42.6292 74.2306 42.3725 74.3828 42.1494C74.5351 41.9263 74.7388 41.7435 74.9766 41.6165C75.1316 41.5432 75.3074 41.5272 75.473 41.5712C75.6387 41.6152 75.7835 41.7165 75.882 41.8572C76.029 42.0591 76.0057 42.2377 76.0522 42.2377C76.0986 42.2377 76.1992 42.0746 76.0522 41.7485C75.9718 41.5551 75.8268 41.3958 75.6421 41.2982C75.3883 41.1683 75.0939 41.1432 74.8219 41.2283C74.4979 41.3577 74.2124 41.5684 73.9929 41.8404C73.7734 42.1123 73.6272 42.4362 73.5684 42.7811C73.3537 43.5394 73.3245 44.3384 73.4833 45.1104C73.8315 46.7487 74.9457 48.1307 76.176 48.2627C76.4064 48.2872 76.6393 48.2594 76.8576 48.1815C77.0759 48.1036 77.2739 47.9774 77.4372 47.8124C77.708 47.5717 77.7157 47.3854 77.6848 47.3776Z" fill="#AA6550"/>
<path d="M76.9962 13.7892C74.5047 10.7999 79.3174 5.2873 83.1862 3.41611C87.0549 1.54492 92.6259 2.74062 96.8351 3.48599C99.4891 3.95961 102.182 4.76709 104.828 4.26241C106.584 3.82143 108.264 3.11732 109.811 2.17382C111.362 1.24728 113.083 0.642667 114.871 0.395808C115.771 0.284772 116.683 0.422019 117.511 0.792777C118.339 1.16354 119.05 1.75377 119.568 2.49993C120.489 4.05279 119.846 6.483 118.113 6.98768C118.636 6.58978 119.246 6.32497 119.893 6.21596C120.54 6.10695 121.203 6.157 121.827 6.36181C122.45 6.56662 123.014 6.92009 123.471 7.39188C123.929 7.86367 124.265 8.43971 124.452 9.07059C124.638 9.70147 124.669 10.3684 124.543 11.0141C124.416 11.6597 124.135 12.265 123.724 12.7778C123.313 13.2906 122.785 13.6958 122.183 13.9585C121.582 14.2212 120.926 14.3336 120.272 14.2861C121.301 13.2302 123.297 14.4336 123.367 15.9088C123.437 17.384 122.276 18.6341 121.046 19.4183C117.866 21.4215 113.827 21.5224 110.128 20.8547C106.43 20.187 102.886 18.8049 99.2028 18.044C95.5197 17.2831 89.3375 15.839 86.0103 17.6014C83.5653 18.8903 82.219 22.26 80.6638 21.8019C79.9273 21.5297 79.2642 21.089 78.727 20.5149C78.1897 19.9408 77.7932 19.249 77.5688 18.4943C77.1496 16.9791 76.9746 15.4064 77.0503 13.8358" fill="#263238"/>
<path d="M61.0795 51.6406C60.9273 51.6056 60.783 51.5424 60.6539 51.4542C60.2713 51.2076 59.9656 50.8578 59.7719 50.4449C59.4718 49.7843 59.38 49.0474 59.5088 48.333C59.7096 47.3935 60.2225 46.5503 60.9634 45.9416C61.8427 45.2153 62.8329 44.6359 63.8959 44.2257C65.0909 43.7881 66.2393 43.2315 67.3237 42.5641C68.4599 41.763 69.3262 40.6337 69.8074 39.3264C70.3361 37.9188 70.5807 36.4197 70.527 34.9163C70.4496 31.8106 69.5907 28.899 69.3818 26.1582C69.1729 23.4174 69.5211 20.8475 70.6817 19.0695C71.5543 17.6395 72.9381 16.598 74.5505 16.1578C74.9826 16.0486 75.4285 16.0041 75.8736 16.0259C76.0282 16.0283 76.1818 16.0518 76.3301 16.0957C75.7428 16.0919 75.1576 16.1649 74.5891 16.3131C73.0561 16.7994 71.7557 17.8362 70.9371 19.2247C69.8616 20.9484 69.4901 23.4485 69.7609 26.1272C70.0318 28.8059 70.8597 31.7175 70.9526 34.9086C71.0018 36.467 70.7387 38.0195 70.1788 39.474C69.6612 40.8551 68.7351 42.0444 67.5248 42.8825C66.4142 43.5516 65.2401 44.1082 64.0197 44.544C62.9849 44.9291 62.0164 45.474 61.1491 46.159C60.4422 46.7202 59.9413 47.5014 59.7254 48.3796C59.5842 49.0482 59.649 49.7442 59.9111 50.375C60.1504 50.9149 60.5613 51.36 61.0795 51.6406Z" fill="#455A64"/>
<path d="M118.376 6.79402C118.485 6.71235 118.605 6.64696 118.732 6.59991C118.877 6.52839 119.027 6.46867 119.181 6.42132C119.395 6.34778 119.615 6.29323 119.839 6.25828C120.573 6.14211 121.323 6.19498 122.034 6.4129C122.744 6.63082 123.396 7.00807 123.94 7.51609C124.491 8.1894 124.903 8.9657 125.152 9.80002C125.402 10.6343 125.484 11.5101 125.394 12.3765C125.29 13.4527 124.973 14.4971 124.46 15.4479C123.947 16.3988 123.249 17.2368 122.408 17.9125C120.474 19.4758 118.119 20.4246 115.645 20.6377C112.958 20.8696 110.252 20.7048 107.614 20.1486C103.429 19.3259 99.4217 17.77 95.7752 15.5521C94.212 14.5819 92.5772 13.7331 90.885 13.0132C89.4089 12.4121 87.8353 12.0884 86.2425 12.0582C83.9249 12.0079 81.6316 12.5418 79.5728 13.6111C78.8286 14.029 78.108 14.4878 77.4141 14.9853C78.0338 14.3745 78.7341 13.852 79.4955 13.4325C81.5598 12.2783 83.8873 11.6817 86.2503 11.701C87.882 11.7135 89.4976 12.0267 91.0166 12.625C92.7266 13.344 94.3794 14.1928 95.9608 15.1639C99.582 17.3359 103.551 18.8621 107.691 19.675C110.291 20.2275 112.957 20.3975 115.606 20.1796C118.005 19.98 120.291 19.0722 122.176 17.5708C122.986 16.9277 123.661 16.1289 124.161 15.221C124.66 14.3131 124.974 13.3145 125.085 12.2834C125.179 11.4572 125.11 10.6204 124.882 9.82099C124.654 9.02158 124.27 8.27525 123.754 7.62479C123.238 7.13067 122.619 6.75796 121.942 6.53368C121.265 6.30941 120.546 6.23921 119.839 6.32816C119.338 6.43816 118.849 6.5941 118.376 6.79402Z" fill="#455A64"/>
<path d="M113.85 0C113.878 0.623871 113.78 1.24701 113.563 1.83237C112.96 3.45029 111.832 4.81758 110.36 5.71451C109.371 6.36092 108.272 6.81889 107.118 7.06548C105.795 7.33312 104.439 7.40376 103.095 7.27512C100.255 7.06549 97.2838 6.08718 94.1656 5.2797C91.0474 4.47221 87.9292 4.04519 85.2365 4.76727C82.8466 5.40263 80.7213 6.78721 79.1703 8.71928C78.1037 10.0025 77.3133 11.4935 76.8491 13.0983C76.5396 14.2397 76.5009 14.9074 76.4467 14.8996C76.4363 14.7393 76.4363 14.5785 76.4467 14.4183C76.4892 13.9606 76.5641 13.5065 76.6711 13.0595C77.0839 11.404 77.8524 9.85911 78.9227 8.53293C80.489 6.52156 82.6597 5.07036 85.1127 4.39457C87.8982 3.61814 91.1015 4.06072 94.2352 4.87596C97.3689 5.69121 100.317 6.66951 103.095 6.89467C104.403 7.03054 105.725 6.97562 107.018 6.73163C108.136 6.5033 109.205 6.0774 110.175 5.47381C111.609 4.62497 112.733 3.33428 113.378 1.79355C113.585 1.21002 113.743 0.610061 113.85 0Z" fill="#455A64"/>
<path d="M109.896 51.524C109.794 52.3256 109.583 53.1093 109.269 53.8533C109.105 54.2209 108.865 54.5494 108.565 54.8171C108.265 55.0848 107.911 55.2855 107.528 55.4062C107.113 55.4922 106.683 55.4726 106.278 55.3492C105.873 55.2258 105.504 55.0025 105.207 54.6996C104.614 54.0724 104.232 53.2738 104.116 52.4169C103.992 51.6405 104.116 50.6699 104.89 50.4215C105.202 50.3439 105.529 50.3439 105.841 50.4215L110.128 51.1979" fill="#AA6550"/>
<path d="M109.145 54.7847C108.464 55.0478 107.74 55.1846 107.01 55.1884C106.254 55.1439 105.542 54.817 105.014 54.2722C104.702 53.939 104.464 53.5432 104.316 53.1108C104.168 52.6785 104.113 52.2196 104.155 51.7644C104.178 51.5311 104.23 51.3016 104.31 51.0811C104.41 50.8715 104.379 50.887 104.557 50.8637C104.735 50.8404 105.014 50.8637 105.246 50.9025L105.965 50.9569C106.894 51.0268 107.73 51.0811 108.434 51.1199C109.205 51.2276 109.988 51.2119 110.755 51.0734C110.031 50.8083 109.272 50.6513 108.503 50.6075C107.807 50.5066 106.956 50.4056 106.05 50.2969L105.339 50.2193C105.082 50.1816 104.824 50.1582 104.565 50.1494C104.36 50.155 104.162 50.2256 104 50.3513C103.856 50.4794 103.747 50.6425 103.683 50.8249C103.578 51.1045 103.51 51.397 103.482 51.6945C103.431 52.2535 103.504 52.8168 103.695 53.3443C103.886 53.8718 104.191 54.3504 104.588 54.7459C105.248 55.376 106.13 55.7192 107.041 55.7009C107.636 55.7033 108.22 55.5393 108.728 55.2272C108.991 55.0098 109.169 54.8157 109.145 54.7847Z" fill="#263238"/>
<path d="M112.983 67.4014C112.983 67.4014 105.184 70.3673 97.5933 68.1778C97.5933 68.1778 103.319 72.9994 113.765 71.1515L112.983 67.4014Z" fill="#AA6550"/>
<path d="M101.083 178.718C101.459 178.471 101.815 178.196 102.15 177.895C102.483 177.623 102.924 177.289 103.396 176.932C103.868 176.575 104.441 176.156 105.098 175.729C105.756 175.302 106.437 174.836 107.234 174.393C108.031 173.951 108.874 173.485 109.779 173.019C113.749 171.059 118.017 169.778 122.407 169.23C123.421 169.121 124.38 168.997 125.285 168.974C126.191 168.95 127.034 168.912 127.8 168.919C128.566 168.927 129.27 168.966 129.881 168.989C130.493 169.012 131.019 169.059 131.429 169.106C131.872 169.174 132.32 169.205 132.768 169.199C132.332 169.087 131.89 169.004 131.444 168.95C130.932 168.862 130.416 168.8 129.897 168.764C129.286 168.717 128.589 168.632 127.808 168.632C127.026 168.632 126.183 168.585 125.27 168.632C124.357 168.679 123.382 168.756 122.361 168.849C120.147 169.126 117.958 169.578 115.815 170.2C113.688 170.856 111.618 171.684 109.625 172.677C108.719 173.159 107.845 173.601 107.079 174.098C106.313 174.595 105.586 175.038 104.951 175.488C104.317 175.938 103.76 176.373 103.272 176.746C102.785 177.118 102.382 177.476 102.065 177.771C101.712 178.058 101.383 178.375 101.083 178.718Z" fill="#FAFAFA"/>
<path d="M146.556 138.84L140.212 111.254C137.782 100.881 134.904 90.9116 130.068 89.7314V92.9381L132.141 171.753C132.141 171.753 145.071 186.505 161.544 178.322C166.697 175.752 176.098 157.7 176.098 157.7C176.098 157.7 197.972 118.537 197.059 116.759C196.146 114.981 182.783 97.6976 181.422 96.8358L146.556 138.84Z" fill="#EB996E"/>
<path d="M81.2672 81.9209C68.6551 84.3433 54.4568 91.7272 47.9186 110.649C45.5355 117.559 28.1725 168.5 28.1725 168.5L57.784 167.879L62.5657 157.39L60.2445 174.432L58.2404 198.734L133.016 200L132.489 163.384L131.77 90.5547C131.77 90.5547 130.934 89.4522 118.036 82.3169C110.035 77.8835 81.2672 81.9209 81.2672 81.9209Z" fill="#EB996E"/>
<g opacity="0.2">
<path d="M73.8079 130.634C72.5777 146.007 71.1694 150.759 69.9392 166.132C69.9099 167.588 69.6487 169.029 69.1654 170.402C68.907 171.085 68.4923 171.697 67.9547 172.19C67.417 172.682 66.7716 173.041 66.0704 173.236C63.8885 173.679 61.0565 175.263 60.4453 173.12L62.5112 158.313C62.9553 156.159 63.6406 154.063 64.5539 152.063C69.1422 141.838 70.8367 141.24 73.8389 130.634" fill="black"/>
</g>
<path d="M118.043 90.198L117.795 88.5986L115.404 73.2563C115.336 72.8104 115.101 72.4072 114.748 72.1277C114.395 71.8483 113.949 71.7133 113.501 71.7501L84.0599 74.2191C83.1706 74.2924 82.3462 74.7156 81.7665 75.3962C81.1867 76.0769 80.8986 76.9599 80.9649 77.8528L81.6226 86.7662L90.8147 98.8008L104.054 100.874" fill="#EB996E"/>
<path d="M132.83 119.042C132.714 119.042 132.629 131.061 132.629 145.883C132.629 160.705 132.714 172.724 132.83 172.724C132.946 172.724 133.031 160.705 133.031 145.883C133.031 131.061 132.938 119.042 132.83 119.042Z" fill="#263238"/>
<path d="M57.1491 170.348C57.1491 170.348 57.1491 170.294 57.242 170.177C57.3348 170.061 57.389 169.867 57.4896 169.649L58.3871 167.607L61.6137 160.068L72.1289 135.137C74.1716 130.261 76.1137 125.618 77.8779 121.387C78.7697 119.405 79.4092 117.318 79.7813 115.175C80.1079 113.303 80.2787 111.408 80.292 109.507C80.3905 106.754 79.9921 104.005 79.1159 101.394L78.876 100.749L78.6052 100.206C78.478 99.9167 78.3225 99.641 78.141 99.3827L77.816 98.9014C77.7786 98.8466 77.7372 98.7948 77.6922 98.7461C78.2011 99.6047 78.6286 100.509 78.9689 101.448C79.7787 104.054 80.1295 106.781 80.0057 109.507C79.9926 113.556 79.1525 117.56 77.5374 121.27L71.7575 135.005L61.3506 159.983L58.2556 167.569L57.4277 169.642L57.2188 170.185C57.1905 170.237 57.1672 170.292 57.1491 170.348Z" fill="#263238"/>
<path d="M72.0907 84.6309C72.3613 84.9066 72.6481 85.1659 72.9495 85.4073C73.8196 86.073 74.7682 86.6285 75.7738 87.0611C77.3667 87.7281 79.0349 88.1975 80.7412 88.4587C82.9967 88.8102 85.2698 89.0358 87.5502 89.1342C90.0881 89.2429 92.8581 89.1963 95.8293 89.2506C98.9854 89.2453 102.13 89.6312 105.192 90.3997C108.584 91.204 111.654 93.0204 113.997 95.6096C115.164 97.0196 116 98.6756 116.442 100.454C116.914 102.279 116.882 104.198 116.349 106.006C116.053 106.898 115.617 107.737 115.057 108.49C114.493 109.222 113.781 109.825 112.968 110.261C112.179 110.694 111.28 110.883 110.384 110.804C109.507 110.714 108.696 110.299 108.109 109.64C107.586 108.946 107.214 108.151 107.016 107.304C106.819 106.458 106.801 105.579 106.964 104.725C107.092 103.881 107.353 103.064 107.737 102.302C108.119 101.56 108.578 100.86 109.107 100.214C111.175 97.822 113.961 96.1682 117.046 95.5008C119.718 94.8681 122.505 94.9001 125.162 95.594C127.348 96.1615 129.435 97.0595 131.352 98.2572C132.812 99.1704 134.189 100.21 135.469 101.363C136.529 102.295 137.279 103.102 137.79 103.63L138.362 104.251C138.425 104.325 138.495 104.393 138.571 104.453C137.66 103.298 136.651 102.225 135.554 101.246C134.287 100.07 132.914 99.0151 131.453 98.0941C129.518 96.8588 127.403 95.9316 125.185 95.3456C122.484 94.6185 119.646 94.5705 116.922 95.2058C113.757 95.8757 110.897 97.563 108.774 100.012C108.234 100.66 107.762 101.362 107.366 102.108C106.976 102.908 106.714 103.765 106.592 104.647C106.457 105.547 106.473 106.463 106.639 107.357C106.805 108.288 107.214 109.158 107.822 109.88C108.473 110.613 109.372 111.075 110.345 111.177C111.321 111.27 112.302 111.067 113.161 110.595C114.025 110.132 114.782 109.492 115.382 108.716C115.973 107.925 116.432 107.044 116.744 106.107C117.3 104.229 117.332 102.233 116.837 100.338C116.385 98.4968 115.52 96.7837 114.306 95.33C111.906 92.6882 108.767 90.8346 105.3 90.0115C102.203 89.2519 99.0247 88.8816 95.8371 88.909C92.8581 88.8624 90.0881 88.909 87.5657 88.8391C85.2943 88.7596 83.0289 88.5549 80.7799 88.2257C79.0835 87.9813 77.4216 87.5383 75.8279 86.9058C74.828 86.4984 73.8778 85.9774 72.996 85.353C72.6865 85.1433 72.4776 84.9492 72.3228 84.8405C72.2524 84.7632 72.1747 84.693 72.0907 84.6309Z" fill="#FAFAFA"/>
<path d="M46.5028 116.945C46.6113 116.976 46.7229 116.994 46.8355 117C47.0522 117 47.3694 117.054 47.7873 117.07C48.9563 117.108 50.1266 117.08 51.2923 116.984C52.7702 116.875 54.5189 116.65 56.4532 116.379C58.3876 116.107 60.5077 115.82 62.7516 115.703C64.8497 115.588 66.9539 115.748 69.0112 116.177C70.6934 116.52 72.3085 117.136 73.793 118.001C75.1376 118.826 76.331 119.877 77.3213 121.107C77.2794 121.003 77.222 120.906 77.151 120.82C76.9878 120.545 76.8014 120.286 76.594 120.043C75.8443 119.124 74.9474 118.337 73.94 117.714C72.4458 116.798 70.8083 116.142 69.0963 115.773C67.0064 115.315 64.8643 115.143 62.7284 115.261C60.4613 115.377 58.3335 115.688 56.3991 115.975C54.4647 116.262 52.7315 116.518 51.2691 116.658C49.8068 116.798 48.6074 116.86 47.7873 116.868C47.3579 116.867 46.929 116.893 46.5028 116.945Z" fill="#FAFAFA"/>
<path d="M65.0954 151.753C66.5501 151.413 68.0458 151.285 69.5368 151.372C71.2854 151.491 73.016 151.801 74.6977 152.296C76.6707 152.832 78.8759 153.616 81.3519 154.385C84.0405 155.3 86.8544 155.79 89.6929 155.837C92.9618 155.836 96.1957 155.162 99.1946 153.857C102.527 152.444 105.492 150.281 107.861 147.537C109.142 146.103 110.187 144.472 110.956 142.707C111.774 140.881 112.081 138.865 111.845 136.877C111.576 134.872 110.602 133.03 109.099 131.682C108.352 131.029 107.456 130.57 106.491 130.347C105.547 130.146 104.568 130.173 103.636 130.425C102.704 130.678 101.845 131.148 101.129 131.799C100.43 132.442 99.9437 133.285 99.7362 134.213C99.536 135.123 99.6087 136.071 99.9451 136.939C100.271 137.773 100.763 138.531 101.392 139.167C102.592 140.373 104.042 141.298 105.64 141.877C106.392 142.163 107.169 142.379 107.961 142.521C108.348 142.591 108.735 142.676 109.114 142.731L110.267 142.871C113.094 143.152 115.949 142.95 118.709 142.273C120.985 141.729 123.178 140.883 125.231 139.757C126.784 138.916 128.239 137.905 129.572 136.745L130.346 136.069L130.98 135.425C131.322 135.099 131.643 134.752 131.94 134.384L132.497 133.716C132.56 133.644 132.617 133.566 132.667 133.484C132.592 133.548 132.522 133.618 132.458 133.693L131.878 134.33C131.571 134.686 131.243 135.023 130.895 135.339L130.253 135.968L129.479 136.628C128.141 137.757 126.685 138.738 125.138 139.555C123.096 140.65 120.918 141.47 118.662 141.993C115.93 142.646 113.107 142.83 110.313 142.537L109.184 142.397C108.805 142.335 108.41 142.249 108.039 142.179C107.265 142.039 106.506 141.826 105.771 141.543C104.226 140.978 102.824 140.079 101.663 138.911C101.071 138.31 100.608 137.594 100.301 136.807C99.9975 136.007 99.9303 135.136 100.108 134.299C100.337 133.444 100.795 132.668 101.432 132.055C102.068 131.442 102.86 131.015 103.721 130.82C104.603 130.565 105.535 130.539 106.429 130.744C107.324 130.949 108.152 131.379 108.835 131.993C110.268 133.274 111.194 135.029 111.443 136.939C111.665 138.853 111.371 140.791 110.592 142.552C109.843 144.276 108.83 145.871 107.59 147.281C105.261 149.975 102.35 152.099 99.0785 153.492C96.127 154.785 92.9442 155.461 89.7239 155.48C86.9139 155.445 84.1263 154.973 81.4602 154.082C78.992 153.306 76.8177 152.576 74.7827 152.056C73.084 151.577 71.3376 151.288 69.5754 151.194C68.9338 151.154 68.2904 151.154 67.6488 151.194C67.0994 151.279 66.6275 151.318 66.2561 151.403L65.4127 151.613C65.301 151.645 65.1942 151.692 65.0954 151.753Z" fill="#FAFAFA"/>
<path d="M133.085 143.468C133.154 143.468 133.51 142.691 134.261 141.387C136.225 138.077 139.089 135.397 142.517 133.662C143.832 132.994 144.699 132.699 144.675 132.629C144.458 132.648 144.244 132.698 144.041 132.776C143.478 132.945 142.927 133.152 142.393 133.398C140.62 134.209 138.99 135.302 137.565 136.635C136.137 137.967 134.937 139.525 134.013 141.247C133.72 141.763 133.462 142.297 133.239 142.847C133.16 143.046 133.108 143.255 133.085 143.468Z" fill="#FAFAFA"/>
<path d="M163.106 176.699C163.106 176.699 163.161 176.637 163.23 176.505C163.3 176.373 163.416 176.164 163.547 175.923C163.826 175.41 164.228 174.642 164.723 173.648C166.161 170.842 167.347 167.914 168.267 164.898C168.883 162.802 169.254 160.642 169.374 158.461C169.435 157.243 169.386 156.021 169.227 154.812C169.034 153.532 168.729 152.272 168.314 151.046C167.411 148.397 165.847 146.023 163.772 144.151C162.663 143.131 161.36 142.347 159.941 141.846C158.522 141.346 157.017 141.14 155.516 141.24C153.956 141.357 152.5 142.068 151.446 143.227C150.945 143.801 150.58 144.481 150.38 145.217C150.181 145.953 150.151 146.725 150.293 147.475C150.46 148.21 150.843 148.878 151.392 149.392C151.928 149.885 152.576 150.24 153.28 150.425C154.642 150.781 156.088 150.606 157.326 149.936C158.476 149.313 159.481 148.453 160.274 147.412C161.036 146.448 161.663 145.385 162.139 144.252C162.977 142.219 163.324 140.017 163.153 137.824C162.996 136.014 162.47 134.256 161.605 132.66C160.965 131.456 160.145 130.357 159.176 129.399C158.569 128.792 157.903 128.248 157.187 127.777C156.947 127.614 156.746 127.513 156.615 127.435L156.413 127.334C156.413 127.334 156.661 127.513 157.141 127.846C157.832 128.341 158.476 128.897 159.067 129.508C159.994 130.474 160.776 131.57 161.389 132.761C162.211 134.337 162.703 136.065 162.836 137.839C162.985 139.989 162.625 142.145 161.783 144.128C161.314 145.228 160.699 146.259 159.957 147.195C159.187 148.192 158.217 149.014 157.11 149.61C155.953 150.234 154.604 150.395 153.334 150.06C152.683 149.907 152.086 149.577 151.609 149.106C151.133 148.634 150.795 148.04 150.634 147.389C150.511 146.703 150.543 145.998 150.728 145.326C150.913 144.654 151.245 144.033 151.701 143.507C152.689 142.426 154.051 141.765 155.508 141.659C156.954 141.563 158.404 141.762 159.771 142.244C161.138 142.726 162.394 143.48 163.462 144.462C165.488 146.29 167.018 148.603 167.911 151.186C168.329 152.385 168.637 153.619 168.832 154.874C168.993 156.062 169.047 157.263 168.995 158.461C168.886 160.619 168.533 162.758 167.942 164.835C167.051 167.844 165.912 170.774 164.538 173.594L163.431 175.923C163.315 176.171 163.222 176.373 163.145 176.528C163.068 176.684 163.106 176.699 163.106 176.699Z" fill="#FAFAFA"/>
<path d="M172.663 108.156C172.663 108.156 172.624 108.265 172.593 108.475C172.538 108.788 172.5 109.104 172.477 109.422C172.375 110.582 172.375 111.748 172.477 112.908C172.789 116.77 174.106 120.482 176.294 123.674C178.483 126.866 181.467 129.426 184.95 131.1C185.992 131.61 187.077 132.029 188.192 132.35C188.579 132.474 188.896 132.528 189.105 132.583C189.314 132.637 189.43 132.645 189.43 132.629C189.042 132.462 188.644 132.319 188.238 132.202C187.153 131.825 186.095 131.371 185.073 130.843C181.684 129.125 178.779 126.579 176.626 123.44C174.474 120.3 173.143 116.668 172.755 112.877C172.633 111.732 172.589 110.58 172.624 109.43C172.664 109.006 172.677 108.581 172.663 108.156Z" fill="#FAFAFA"/>
<path d="M39.7317 141.823C40.8827 142.546 41.8944 143.472 42.7184 144.556C43.4921 145.557 44.2659 146.885 45.1402 148.283C46.0992 149.848 47.2056 151.317 48.4441 152.669C50.7094 155.125 53.3956 157.153 56.3751 158.656C57.2719 159.111 58.1972 159.508 59.1451 159.844C59.4908 159.98 59.8482 160.084 60.2129 160.154C59.8925 159.97 59.5557 159.817 59.207 159.696C58.557 159.409 57.6131 159.005 56.5066 158.399C53.6156 156.84 51.0012 154.812 48.7691 152.398C47.5433 151.066 46.4425 149.623 45.4807 148.088C44.7114 146.806 43.8719 145.567 42.966 144.377C42.3366 143.58 41.5874 142.886 40.7453 142.32C40.5171 142.167 40.2763 142.035 40.0257 141.924C39.8246 141.846 39.7317 141.807 39.7317 141.823Z" fill="#FAFAFA"/>
<path d="M81.545 82.8522C81.6584 82.9009 81.7783 82.9323 81.9009 82.9453L82.93 83.1317C83.8276 83.2792 85.1275 83.4733 86.7291 83.6907C89.9479 84.1255 94.4047 84.6379 99.349 85.0029C101.664 85.2151 103.989 85.298 106.313 85.2513C108.23 85.2044 110.13 84.8774 111.953 84.2808C113.184 83.8804 114.346 83.2911 115.397 82.5338C115.683 82.3311 115.957 82.1107 116.217 81.8738C116.387 81.703 116.472 81.6176 116.464 81.6021C116.457 81.5866 116.062 81.9127 115.311 82.3785C114.243 83.0681 113.084 83.6063 111.868 83.978C110.061 84.5297 108.186 84.8225 106.297 84.8476C103.973 84.8724 101.649 84.7791 99.3335 84.5681C94.4048 84.2031 89.9479 83.745 86.7291 83.3801L82.9146 82.9453C82.4608 82.8821 82.0032 82.851 81.545 82.8522Z" fill="#263238"/>
<path d="M28.5208 173.998C27.9385 177.001 28.0217 180.097 28.7647 183.065C29.5077 186.033 30.8922 188.8 32.8201 191.171C34.7479 193.542 37.172 195.458 39.9204 196.784C42.6687 198.11 45.6741 198.813 48.7234 198.843L107.335 198.191L105.787 179.145L55.6021 171.583" fill="#B78876"/>
<path d="M102.197 179.976C102.468 180.061 105.849 178.539 108.882 177.134C112.1 175.638 115.632 174.951 119.173 175.131L133.147 175.845C133.147 175.845 132.288 178.174 130.826 178.951C129.363 179.727 120.597 179.976 120.597 179.976L121.046 180.434C122.879 182.328 125.379 183.426 128.009 183.493H129.348C130.339 183.414 131.318 183.221 132.265 182.918L135.708 181.521C136.753 181.055 137.851 181.125 138.308 182.181C138.764 183.237 138.416 184.448 135.569 185.884C133.983 186.661 128.087 188.734 128.087 188.734C128.046 189.576 127.93 190.413 127.739 191.234C127.483 192.096 125.17 192.957 125.17 192.957C124.569 194.235 123.881 195.47 123.111 196.653C122.841 196.964 120.744 197.624 118.508 198.253C114.903 199.265 111.086 199.236 107.497 198.167L102.174 196.568V180.263" fill="#B78876"/>
<path d="M121.309 190.62C123.771 190.558 126.184 189.919 128.357 188.757C128.357 188.664 126.81 189.254 124.852 189.758C122.895 190.263 121.301 190.504 121.309 190.62Z" fill="#AA6550"/>
<path d="M121.804 193.889C122.46 194.026 123.141 193.975 123.769 193.742C124.426 193.62 125.036 193.319 125.533 192.872C124.901 192.999 124.279 193.178 123.676 193.408C123.041 193.52 122.415 193.681 121.804 193.889Z" fill="#AA6550"/>
<path d="M119.251 178.71C119.556 179.142 119.918 179.531 120.326 179.867C121.253 180.755 122.275 181.536 123.375 182.196C124.483 182.845 125.687 183.312 126.942 183.578C127.446 183.714 127.968 183.771 128.489 183.749C126.76 183.35 125.09 182.726 123.522 181.893C122.447 181.243 121.425 180.508 120.465 179.696C120.09 179.332 119.684 179.002 119.251 178.71Z" fill="#AA6550"/>
<path d="M100.774 177.422L102.197 198.96H46.9902C43.2419 198.962 39.5637 197.94 36.3512 196.002C32.7153 193.809 29.8407 190.546 28.1185 186.656C26.3962 182.767 25.9099 178.439 26.7257 174.262C27.52 170.171 28.7121 166.169 30.285 162.312L58.0471 166.901L57.1573 170.364L100.774 177.422Z" fill="#EB996E"/>
<path d="M44.3667 168.555C44.5496 168.608 44.7357 168.65 44.9238 168.679L46.541 168.974L52.5066 169.968L72.1289 173.074L91.7744 176.094L97.7323 176.964L99.3571 177.181C99.5469 177.208 99.7381 177.223 99.9297 177.228C99.7466 177.164 99.5573 177.119 99.3649 177.096L97.7555 176.808L91.8131 175.807L72.1908 172.701L52.5066 169.658L46.5487 168.788L44.9238 168.571C44.7392 168.546 44.5524 168.54 44.3667 168.555Z" fill="#263238"/>
<path d="M72.6242 198.976C72.7247 198.976 72.2914 197.423 72.2373 194.884C72.2255 194.194 72.2539 193.505 72.3224 192.818C72.3888 192.036 72.5025 191.258 72.6628 190.489C73.0461 188.718 73.6491 187.001 74.4579 185.38C75.2861 183.767 76.2989 182.255 77.4756 180.877L78.2493 179.969C78.5124 179.674 78.7987 179.417 79.0618 179.153C79.5802 178.618 80.1295 178.191 80.6093 177.779C82.5823 176.226 83.9828 175.45 83.9364 175.38C83.594 175.517 83.2651 175.686 82.9537 175.885C82.5686 176.086 82.1965 176.312 81.8395 176.56C81.4294 176.855 80.9188 177.142 80.4313 177.562C79.8741 177.98 79.3419 178.431 78.8374 178.913C78.5666 179.177 78.2648 179.425 77.994 179.689L77.1506 180.605C75.9387 181.993 74.8994 183.523 74.0556 185.163C73.2364 186.817 72.6331 188.571 72.2605 190.38C72.102 191.172 71.9985 191.974 71.951 192.78C71.9015 193.478 71.9015 194.178 71.951 194.876C71.9659 195.456 72.0176 196.034 72.1058 196.607C72.1483 197.04 72.2233 197.468 72.3301 197.889C72.3968 198.259 72.4952 198.622 72.6242 198.976Z" fill="#FAFAFA"/>
<path d="M39.012 197.352C39.8743 197.347 40.7333 197.245 41.5732 197.049C42.5631 196.821 43.5237 196.48 44.436 196.032C45.6455 195.428 46.7381 194.613 47.6626 193.625C48.7842 192.413 49.5989 190.949 50.038 189.355C50.2826 188.469 50.4203 187.556 50.4481 186.637C50.5041 185.666 50.4259 184.691 50.2159 183.741C50.009 182.73 49.621 181.764 49.0708 180.892C48.4966 179.966 47.698 179.202 46.7495 178.671C45.7688 178.097 44.6409 177.827 43.5075 177.895C42.9249 177.935 42.3565 178.094 41.8365 178.36C41.3166 178.627 40.8559 178.997 40.4822 179.448C40.0955 179.892 39.805 180.412 39.6292 180.974C39.4534 181.537 39.396 182.13 39.4608 182.716C39.5559 183.285 39.776 183.826 40.1052 184.298C40.4345 184.771 40.8646 185.164 41.3642 185.449C43.2371 186.433 45.3937 186.73 47.4614 186.288C50.3964 185.829 53.079 184.354 55.0446 182.12C57.0103 179.885 58.1351 177.031 58.2243 174.051C58.2737 173.186 58.2007 172.318 58.0076 171.474C58.0791 172.328 58.0997 173.186 58.0695 174.044C57.9253 176.38 57.1642 178.637 55.8643 180.581C54.8957 182.008 53.6464 183.222 52.1935 184.147C50.7405 185.072 49.1144 185.69 47.415 185.962C45.4393 186.388 43.3776 186.113 41.5809 185.185C41.132 184.931 40.745 184.579 40.4479 184.156C40.1509 183.733 39.9511 183.249 39.8631 182.74C39.8176 182.208 39.8769 181.673 40.0379 181.165C40.1988 180.656 40.4582 180.185 40.8011 179.777C41.1439 179.37 41.5636 179.034 42.036 178.79C42.5084 178.545 43.0242 178.397 43.554 178.353C44.6031 178.281 45.6501 178.521 46.5638 179.044C47.4236 179.559 48.1624 180.255 48.7299 181.083C49.2974 181.911 49.6803 182.852 49.8523 183.842C50.0618 184.763 50.1425 185.709 50.0921 186.653C50.0708 187.542 49.9435 188.426 49.713 189.285C49.3051 190.837 48.53 192.267 47.4536 193.454C46.5689 194.429 45.5215 195.241 44.3586 195.853C43.4669 196.31 42.5275 196.667 41.5577 196.917C39.9328 197.282 39.0043 197.298 39.012 197.352Z" fill="#FAFAFA"/>
</g>
<defs>
<clipPath id="clip0_993_5063">
<rect width="216" height="200" fill="white" transform="matrix(-1 0 0 1 216 0)"/>
</clipPath>
</defs>
</svg>
