<svg width="20" height="28" viewBox="0 0 20 28" fill="none" xmlns="http://www.w3.org/2000/svg">
<path d="M14.667 11.6667C14.667 14.2438 12.5775 16.3333 10.0003 16.3333C7.42316 16.3333 5.33366 14.2438 5.33366 11.6667V4.66667C5.33366 2.0895 7.42316 0 10.0003 0C12.5775 0 14.667 2.0895 14.667 4.66667V11.6667ZM19.3337 9.33333V11.6667C19.3337 16.821 15.1547 21 10.0003 21C4.84599 21 0.666992 16.821 0.666992 11.6667V9.33333H3.00033V11.6667C3.00033 15.5272 6.13983 18.6667 10.0003 18.6667C13.8608 18.6667 17.0003 15.5272 17.0003 11.6667V9.33333H19.3337ZM11.167 24.535V22.1667H8.83366V24.535C6.17133 24.6972 4.16699 25.403 4.16699 26.25C4.16699 27.2172 6.77799 28 10.0003 28C13.2227 28 15.8337 27.2172 15.8337 26.25C15.8337 25.403 13.8293 24.6972 11.167 24.535Z" fill="white"/>
</svg>
