<svg width="22" height="22" viewBox="0 0 22 22" fill="none" xmlns="http://www.w3.org/2000/svg">
<path d="M9 8C9.55229 8 10 8.44771 10 9V15.5C10 16.0523 9.55229 16.5 9 16.5C8.44771 16.5 8 16.0523 8 15.5V9C8 8.44771 8.44771 8 9 8Z" fill="#A29FC7"/>
<path d="M14 9C14 8.44771 13.5523 8 13 8C12.4477 8 12 8.44771 12 9V15.5C12 16.0523 12.4477 16.5 13 16.5C13.5523 16.5 14 16.0523 14 15.5V9Z" fill="#A29FC7"/>
<path fill-rule="evenodd" clip-rule="evenodd" d="M8.6445 0C8.2793 0 7.94315 0.199078 7.76761 0.519316L6.40778 3H1C0.447715 3 0 3.44772 0 4C0 4.55228 0.447715 5 1 5H2.5V21C2.5 21.5523 2.94772 22 3.5 22H18.5C19.0523 22 19.5 21.5523 19.5 21V5H21C21.5523 5 22 4.55228 22 4C22 3.44772 21.5523 3 21 3H15.598L14.2695 0.526796C14.0952 0.202388 13.7568 0 13.3885 0H8.6445ZM13.3277 3L12.7906 2H9.23672L8.68856 3H13.3277ZM4.5 5V20H17.5V5H4.5Z" fill="#A29FC7"/>
</svg>
