<svg width="20" height="18" viewBox="0 0 20 18" fill="none" xmlns="http://www.w3.org/2000/svg">
<path fill-rule="evenodd" clip-rule="evenodd" d="M4.8891 0.292893C5.27963 0.683417 5.27963 1.31658 4.8891 1.70711L3.41421 3.182H12.3362C16.3157 3.182 19.5845 6.3257 19.7396 10.3022C19.9035 14.5042 16.5414 18 12.3362 18H4.00009C3.44781 18 3.00009 17.5523 3.00009 17C3.00009 16.4477 3.44781 16 4.00009 16H12.3362C15.4062 16 17.8608 13.4478 17.7411 10.3802L18.7403 10.3412L17.7411 10.3802C17.6279 7.4771 15.2415 5.182 12.3362 5.182H3.41424L4.8891 6.65684C5.27962 7.04736 5.27963 7.68052 4.88911 8.07105C4.49859 8.46158 3.86542 8.46158 3.47489 8.07106L0.292898 4.88911C0.10536 4.70158 1.07289e-06 4.44722 0 4.182C-1.07288e-06 3.91679 0.105356 3.66243 0.292893 3.47489L3.47489 0.292894C3.86541 -0.0976308 4.49858 -0.0976313 4.8891 0.292893Z" fill="#A29FC7"/>
</svg>
