<svg width="12" height="12" viewBox="0 0 12 12" fill="none" xmlns="http://www.w3.org/2000/svg">
<path d="M11.5834 10.4167C11.9167 10.7501 11.9167 11.2501 11.5834 11.5834C11.4167 11.7501 11.2501 11.8334 11.0001 11.8334C10.7501 11.8334 10.5834 11.7501 10.4167 11.5834L6.00008 7.16675L1.58341 11.5834C1.41675 11.7501 1.25008 11.8334 1.00008 11.8334C0.750081 11.8334 0.583415 11.7501 0.416748 11.5834C0.0834147 11.2501 0.0834147 10.7501 0.416748 10.4167L4.83341 6.00008L0.416748 1.58341C0.0834147 1.25008 0.0834147 0.750081 0.416748 0.416748C0.750081 0.0834147 1.25008 0.0834147 1.58341 0.416748L6.00008 4.83341L10.4167 0.416748C10.7501 0.0834147 11.2501 0.0834147 11.5834 0.416748C11.9167 0.750081 11.9167 1.25008 11.5834 1.58341L7.16675 6.00008L11.5834 10.4167Z" fill="#7367F0"/>
</svg>
