<svg width="47" height="49" viewBox="0 0 47 49" fill="none" xmlns="http://www.w3.org/2000/svg">
<rect width="47" height="49" rx="4" fill="#E8E7F7"/>
<path d="M16.168 17.8746V29.3083C16.168 29.9425 16.4199 30.5507 16.8684 30.9993C17.317 31.4477 17.9252 31.6996 18.5594 31.6997H28.89C29.5243 31.6996 30.1326 31.4477 30.5811 30.9993C31.0295 30.5507 31.2814 29.9425 31.2816 29.3083V17.8746H16.168ZM23.4487 19.984C23.6387 19.9784 23.823 20.05 23.9595 20.1824C24.0958 20.3148 24.1728 20.4968 24.1728 20.687V28.8877C24.1728 29.139 24.0389 29.3712 23.8212 29.4968C23.6034 29.6225 23.3352 29.6225 23.1177 29.4968C22.9 29.3712 22.7659 29.139 22.7659 28.8877V20.687C22.7659 20.5041 22.8373 20.3282 22.9648 20.197C23.0922 20.0658 23.2658 19.9894 23.4487 19.984L23.4487 19.984ZM19.3574 19.9853C19.5474 19.9794 19.7319 20.0507 19.8684 20.1829C20.005 20.315 20.0825 20.4968 20.0828 20.687V28.8876C20.0788 29.1363 19.9438 29.3642 19.7279 29.4873C19.5119 29.6104 19.247 29.6104 19.0309 29.4873C18.815 29.3642 18.68 29.1363 18.6761 28.8876V20.687C18.6764 20.5045 18.7477 20.3293 18.8749 20.1984C19.002 20.0674 19.175 19.991 19.3575 19.9853L19.3574 19.9853ZM27.5373 19.9853C27.7273 19.9794 27.9117 20.0507 28.0484 20.1829C28.185 20.315 28.2623 20.4968 28.2626 20.687V28.8876C28.2587 29.1363 28.1237 29.3642 27.9078 29.4873C27.6917 29.6104 27.4268 29.6104 27.2108 29.4873C26.9949 29.3642 26.8599 29.1363 26.856 28.8876V20.687C26.8563 20.5045 26.9275 20.3293 27.0547 20.1984C27.1819 20.0674 27.355 19.991 27.5373 19.9853L27.5373 19.9853Z" fill="#A29FC7"/>
<path d="M21.6435 11.9C21.0092 11.9 20.4008 12.1519 19.9522 12.6004C19.5037 13.049 19.2518 13.6574 19.2518 14.2917V15.6015H13.6929V17.0364H33.3072V15.6015H28.1977V14.2917C28.1978 13.6574 27.9459 13.0491 27.4974 12.6006C27.0488 12.152 26.4406 11.9 25.8062 11.9H21.6435ZM21.6435 13.3349H25.8065C26.0603 13.3349 26.3036 13.4357 26.483 13.6152C26.6623 13.7946 26.7631 14.038 26.7631 14.2917V15.6015H20.687V14.2917C20.687 14.038 20.7878 13.7945 20.9671 13.6152C21.1465 13.4357 21.39 13.3349 21.6437 13.3349H21.6435Z" fill="#A29FC7"/>
</svg>
