<svg width="47" height="46" viewBox="0 0 47 46" fill="none" xmlns="http://www.w3.org/2000/svg">
<circle cx="23.5" cy="23" r="23" fill="#DFF2E8"/>
<g clip-path="url(#clip0_1306_282)">
<path d="M20.2919 20.8127C20.5846 20.52 20.9093 20.2787 21.2546 20.088C23.1793 19.0273 25.6473 19.5913 26.8846 21.4673L25.3873 22.964C24.9579 21.9847 23.8919 21.4273 22.8313 21.6647C22.4319 21.754 22.0526 21.9533 21.7426 22.2633L18.8733 25.134C18.0019 26.0053 18.0019 27.4227 18.8733 28.294C19.7446 29.1653 21.1619 29.1653 22.0333 28.294L22.9179 27.4093C23.7226 27.7287 24.5853 27.856 25.4373 27.7927L23.4846 29.7453C21.8106 31.4193 19.0966 31.4193 17.4226 29.7453C15.7486 28.0713 15.7486 25.3573 17.4226 23.6833L20.2919 20.8127V20.8127ZM24.8493 16.2553L22.8966 18.208C23.7479 18.144 24.6113 18.272 25.4159 18.5907L26.2999 17.7067C27.1713 16.8353 28.5886 16.8353 29.4599 17.7067C30.3313 18.578 30.3313 19.9953 29.4599 20.8667L26.5899 23.7367C25.7159 24.6107 24.2966 24.6033 23.4299 23.7367C23.2279 23.5347 23.0539 23.2833 22.9453 23.036L21.4479 24.5327C21.6053 24.7713 21.7686 24.9773 21.9786 25.1873C22.5199 25.7287 23.2093 26.132 24.0026 26.3233C25.0306 26.5707 26.1319 26.434 27.0779 25.912C27.4233 25.7213 27.7479 25.48 28.0406 25.1873L30.9099 22.3173C32.5846 20.6433 32.5846 17.9293 30.9106 16.2553C29.2366 14.582 26.5233 14.582 24.8493 16.2553V16.2553Z" fill="#28C76F"/>
</g>
<defs>
<clipPath id="clip0_1306_282">
<rect width="18" height="16" fill="white" transform="translate(14.5 15)"/>
</clipPath>
</defs>
</svg>
